# Blender 4.1.1
# www.blender.org
mtllib tree08.mtl
o tree08
v 0.000000 -0.000000 -0.484985
v -0.420009 -0.000000 -0.242492
v -0.420009 0.000000 0.242492
v 0.000000 0.000000 0.484985
v 0.420009 0.000000 0.242492
v 0.420009 -0.000000 -0.242492
v 0.000000 2.811757 -0.386911
v -0.335074 2.811757 -0.193456
v -0.335074 2.811757 0.193454
v 0.000000 2.811758 0.386910
v 0.335074 2.811757 0.193454
v 0.335074 2.811757 -0.193456
v 0.000000 10.000000 -0.120003
v -0.103923 10.000000 -0.060003
v -0.103923 10.000000 0.059997
v 0.000000 10.000000 0.119997
v 0.103923 10.000000 0.059997
v 0.103923 10.000000 -0.060003
v 0.000000 10.100000 -0.000003
v 0.000000 0.000000 0.000000
v 3.600000 2.500000 -0.012001
v -3.600000 2.500000 -0.012000
v 3.600000 12.500000 -0.012004
v -3.600000 12.500000 -0.012004
v -3.600000 2.500000 0.012000
v 3.600000 2.500000 0.011999
v -3.600000 12.500000 0.011997
v 3.600000 12.500000 0.011995
v 0.011999 2.500001 3.599999
v 0.012000 2.499999 -3.600001
v 0.012000 12.500001 3.599996
v 0.012001 12.499999 -3.600004
v -0.012000 2.499999 -3.600001
v -0.012000 2.500001 3.599999
v -0.012000 12.499999 -3.600004
v -0.012000 12.500001 3.599996
v -2.554070 2.499999 -2.537100
v 2.537099 2.500001 2.554069
v -2.554070 12.499999 -2.537103
v 2.537099 12.500001 2.554066
v 2.554070 2.500001 2.537099
v -2.537099 2.499999 -2.554070
v 2.554070 12.500001 2.537095
v -2.537099 12.499999 -2.554073
v 2.537099 2.500000 -2.554070
v -2.554070 2.500001 2.537099
v 2.537099 12.499997 -2.554074
v -2.554070 12.500001 2.537095
v -2.537099 2.500001 2.554070
v 2.554069 2.500000 -2.537100
v -2.537099 12.500001 2.554066
v 2.554070 12.499997 -2.537103
vn -0.4998 0.0302 -0.8656
vn -0.4998 0.0312 -0.8656
vn 0.4998 0.0302 -0.8656
vn 0.4998 0.0303 -0.8656
vn 0.4998 0.0302 0.8656
vn 0.4998 0.0307 0.8656
vn -0.9995 0.0302 -0.0000
vn -0.9995 0.0312 -0.0000
vn 0.9995 0.0302 -0.0000
vn 0.9995 0.0308 -0.0000
vn -0.4998 0.0302 0.8656
vn -0.4998 0.0312 0.8656
vn 0.4997 0.0319 -0.8656
vn 0.4997 0.0321 -0.8656
vn 0.4997 0.0316 0.8656
vn 0.4997 0.0321 0.8656
vn -0.9995 0.0321 -0.0000
vn 0.9995 0.0312 -0.0000
vn 0.9995 0.0321 -0.0000
vn -0.4997 0.0318 0.8656
vn -0.4997 0.0321 0.8656
vn -0.4997 0.0321 -0.8656
vn 0.3467 0.7206 -0.6005
vn 0.3467 0.7206 0.6005
vn -0.6934 0.7206 -0.0000
vn 0.6934 0.7206 -0.0000
vn -0.3467 0.7206 0.6005
vn -0.3467 0.7206 -0.6005
vn -0.0000 -1.0000 -0.0000
vn -0.0000 -0.0000 -1.0000
vn -0.0000 -0.0000 1.0000
vn 1.0000 -0.0000 -0.0000
vn -1.0000 -0.0000 -0.0000
vn -0.7071 -0.0000 0.7071
vn 0.7071 -0.0000 -0.7071
vn -0.7071 -0.0000 -0.7071
vn 0.7071 -0.0000 0.7071
vt 0.191814 0.149483
vt 0.168934 0.305670
vt 0.188166 0.307781
vt 0.066806 0.149815
vt 0.036160 0.155661
vt 0.071389 0.308103
vt 0.129258 0.145034
vt 0.097912 0.146268
vt 0.110117 0.304516
vt 0.160629 0.146103
vt 0.149421 0.304408
vt 0.090611 0.305885
vt 0.129768 0.304020
vt 0.103095 0.943341
vt 0.122105 0.942698
vt 0.141110 0.942657
vt 0.112604 0.942945
vt 0.131605 0.942603
vt 0.150625 0.942848
vt 0.193871 0.081919
vt 0.174065 0.066583
vt 0.171050 0.089788
vt 0.152353 0.075310
vt 0.154260 0.051246
vt 0.177081 0.043377
vt 0.195778 0.057854
vt 0.054963 0.086652
vt 0.093496 0.068298
vt 0.058334 0.044105
vt 0.090125 0.110846
vt 0.132029 0.049944
vt 0.128658 0.092491
vt 0.096867 0.025750
vt 0.986305 0.029833
vt 0.273525 0.970167
vt 0.273525 0.029833
vt 0.273766 0.029833
vt 0.986064 0.970167
vt 0.986064 0.029833
vt 0.273766 0.970167
vt 0.222594 0.155184
vt 0.160158 0.943194
vt 0.986305 0.970167
s 1
usemtl tree08
f 2/1/1 8/2/2 7/3/2
f 6/4/3 1/5/3 7/6/4
f 4/7/5 5/8/5 11/9/6
f 3/10/7 9/11/8 8/2/8
f 5/8/9 6/4/9 12/12/10
f 3/10/11 4/7/11 10/13/12
f 12/12/13 7/6/4 13/14/14
f 10/13/15 11/9/6 17/15/16
f 8/2/8 9/11/8 15/16/17
f 11/9/18 12/12/10 18/17/19
f 9/11/20 10/13/12 16/18/21
f 7/3/2 8/2/2 14/19/22
f 13/20/23 19/21/23 18/22/23
f 17/23/24 19/21/24 16/24/24
f 15/25/25 19/21/25 14/26/25
f 18/22/26 19/21/26 17/23/26
f 16/24/27 19/21/27 15/25/27
f 14/26/28 19/21/28 13/20/28
f 1/27/29 20/28/29 2/29/29
f 6/30/29 20/28/29 1/27/29
f 4/31/29 20/28/29 5/32/29
f 2/29/29 20/28/29 3/33/29
f 5/32/29 20/28/29 6/30/29
f 3/33/29 20/28/29 4/31/29
f 22/34/30 23/35/30 21/36/30
f 26/37/31 27/38/31 25/39/31
f 30/34/32 31/35/32 29/36/32
f 34/37/33 35/38/33 33/39/33
f 38/34/34 39/35/34 37/36/34
f 42/37/35 43/38/35 41/39/35
f 46/34/36 47/35/36 45/36/36
f 49/39/37 52/40/37 51/38/37
f 2/1/1 7/3/2 1/41/1
f 6/4/3 7/6/4 12/12/13
f 4/7/5 11/9/6 10/13/15
f 3/10/7 8/2/8 2/1/7
f 5/8/9 12/12/10 11/9/18
f 3/10/11 10/13/12 9/11/20
f 12/12/13 13/14/14 18/17/14
f 10/13/15 17/15/16 16/18/16
f 8/2/8 15/16/17 14/19/17
f 11/9/18 18/17/19 17/15/19
f 9/11/20 16/18/21 15/16/21
f 7/3/2 14/19/22 13/42/22
f 22/34/30 24/43/30 23/35/30
f 26/37/31 28/40/31 27/38/31
f 30/34/32 32/43/32 31/35/32
f 34/37/33 36/40/33 35/38/33
f 38/34/34 40/43/34 39/35/34
f 42/37/35 44/40/35 43/38/35
f 46/34/36 48/43/36 47/35/36
f 49/39/37 50/37/37 52/40/37
